<?xml version="1.0" encoding="utf-8"?>
<!-- Generator: Adobe Illustrator 22.1.0, SVG Export Plug-In . SVG Version: 6.00 Build 0)  -->
<svg version="1.1" id="Layer_1" xmlns="http://www.w3.org/2000/svg" xmlns:xlink="http://www.w3.org/1999/xlink" x="0px" y="0px"
	 viewBox="0 0 175 138" style="enable-background:new 0 0 175 138;" xml:space="preserve">
<style type="text/css">
	.st0{fill:#b44b8d;}
	.st1{fill:#b44b8d;}
</style>
<g>
	<path class="st0" d="M0.8,35.8c0-6,0-12,0-18c0.3-0.3,0.7-0.7,1-1c2.6-1.6,5.4-2.1,8.5-2c21.6,0.1,43.1,0,64.7,0
		c2.1,0.3,4.2,0.7,6.4,0.7c26.4,0.1,52.8,0,79.2,0c1.8,0,3.7,0.1,5.5,0.1c3.5,0.1,5.8,2.1,7.5,5c0.6,1,0.9,2.1,1.3,3.2c0,1,0,2,0,3
		c-0.1,1-0.2,2-0.2,3c0,31.4,0,62.7,0,94.1c0,1,0.1,2,0.2,3c-0.6,5-2.6,9-8.1,10.1c-1.2,0-2.3-0.1-3.5-0.1c-49.4,0-98.8,0-148.2,0
		c-2.2,0-4.3,0.1-6.5,0.1c-4.3-0.5-5.9-4.1-7.9-7.1c0-1,0-2,0-3c1.8-1.2,0.9-3,1-4.6c0.1-11.3,0-22.6,0-33.9c0-16,0-31.9,0-47.9
		C1.7,38.9,2.6,37,0.8,35.8z M0.8,126.8c1.8-1.2,0.9-3,1-4.6c0.1-11.3,0-22.6,0-33.9c0-16,0-31.9,0-47.9c0-1.5,0.9-3.4-1-4.6
		C0.8,66.2,0.8,96.5,0.8,126.8z"/>
	<path class="st1" d="M60.8,0.6c3.2,0.2,5.7,1.8,7.5,4.3c2.3,3.2,4.4,6.6,6.6,9.9c-21.6,0-43.1,0.1-64.7,0c-3.1,0-5.9,0.5-8.5,2
		c-0.4-2,1-4.3-1-6c0-1,0-2,0-3c2.1-3,3.7-6.5,7.9-7.1c11.4,0,22.9,0.1,34.3,0.1C48.9,0.8,54.9,0.7,60.8,0.6z M0.8,17.8
		c0.3-0.3,0.7-0.7,1-1c-0.4-2,1-4.3-1-6C0.8,13.2,0.8,15.5,0.8,17.8z"/>
</g>
</svg>
