<?xml version="1.0" encoding="utf-8"?>
<!-- Generator: Adobe Illustrator 25.4.1, SVG Export Plug-In . SVG Version: 6.00 Build 0)  -->
<svg version="1.1" id="Layer_1" xmlns="http://www.w3.org/2000/svg" xmlns:xlink="http://www.w3.org/1999/xlink" x="0px" y="0px"
	 viewBox="0 0 101.7 20.3" style="enable-background:new 0 0 101.7 20.3;" xml:space="preserve">
<style type="text/css">
	.st0{font-family:'CabinSketch-Regular';}
	.st1{font-size:11px;}
	.st2{fill:#D85C50;}
</style>
<text transform="matrix(1 0 0 1 21.5219 9.3434)"><tspan x="0" y="0" class="st0 st1">click here to</tspan><tspan x="0" y="9" class="st2 st0 st1">remove this award</tspan><tspan x="78.2" y="9" class="st0 st1">.</tspan></text>
<g>
	<g>
		<path d="M18.6,9.9c-5.6,1-11,2.9-16,5.6C0.8,16.4,2.3,19,4,18.1c4.8-2.6,10-4.4,15.3-5.3c0.8-0.1,1.2-1.1,1-1.8
			C20.2,10.1,19.4,9.7,18.6,9.9L18.6,9.9z"/>
	</g>
</g>
<g>
	<g>
		<path d="M4.3,17.5c0.6-1.4,1.2-2.7,1.9-4.1c0.2-0.4,0.3-0.7,0.2-1.2c-0.1-0.3-0.4-0.7-0.7-0.9c-0.3-0.2-0.8-0.3-1.2-0.2
			c-0.4,0.1-0.7,0.3-0.9,0.7c-0.6,1.4-1.2,2.7-1.9,4.1c-0.2,0.4-0.3,0.7-0.2,1.2c0.1,0.3,0.4,0.7,0.7,0.9c0.3,0.2,0.8,0.3,1.2,0.2
			C3.7,18.1,4.1,17.9,4.3,17.5L4.3,17.5z"/>
	</g>
</g>
<g>
	<g>
		<path d="M2.3,18.2c1.7,0.5,3.4,0.9,5.1,1.4c0.8,0.2,1.7-0.3,1.8-1c0.2-0.8-0.2-1.6-1-1.8c-1.7-0.5-3.4-0.9-5.1-1.4
			c-0.8-0.2-1.7,0.3-1.8,1C1.1,17.2,1.5,18,2.3,18.2L2.3,18.2z"/>
	</g>
</g>
</svg>
