<?xml version="1.0" encoding="utf-8"?>
<!-- Generator: Adobe Illustrator 25.4.1, SVG Export Plug-In . SVG Version: 6.00 Build 0)  -->
<svg version="1.1" id="Layer_1" xmlns="http://www.w3.org/2000/svg" xmlns:xlink="http://www.w3.org/1999/xlink" x="0px" y="0px"
	 viewBox="0 0 262.3 302" style="enable-background:new 0 0 262.3 302;" xml:space="preserve">
<style type="text/css">
	.st0{fill:#FFFFFF;}
</style>
<g id="FwcbL0.tif">
	<g>
		<path class="st0" d="M130.3,107.4c25.9,0,51.7,0,77.6,0c7.4,0,10,3.2,9.4,10.6c-1.3,14.7-2.4,29.3-3.6,44c-2,24.3-4,48.6-5.9,72.8
			c-1.1,14-2.3,28-3.3,42c-0.5,7.6-3.1,13.9-10.3,17.2c-2.4,1.1-5.3,1.8-7.9,1.8c-37.3,0.1-74.5,0.1-111.8,0.1
			c-9.8,0-17.1-6.7-18.1-16.4c-1-10.3-1.7-20.5-2.6-30.8c-1.2-15.1-2.4-30.2-3.6-45.3c-1.6-19.6-3.2-39.1-4.8-58.7
			c-0.8-9.4-1.5-18.7-2.2-28.1c-0.5-6.2,2.4-9.3,8.7-9.3C78.1,107.4,104.2,107.4,130.3,107.4z M71.9,137.2c0,0.4,0,0.8,0,1.2
			c1.4,22.4,2.9,44.8,4.3,67.2c1.4,21.5,2.7,43,4,64.5c0.3,5.2,4.1,8.7,8.8,8.5c4.8-0.2,8.3-4.4,8.1-9.5c-0.1-3-0.4-6-0.5-9
			c-1.4-22.3-2.9-44.6-4.3-66.9c-1.1-17.9-2.2-35.8-3.3-53.8c-0.1-2.1-0.2-4.2-0.6-6.2c-0.8-3.9-4.2-6.4-8.1-6.4
			C74.8,126.8,71.7,130.7,71.9,137.2z M188.6,139.1C188.6,139.1,188.6,139.1,188.6,139.1c0.1-1.6,0.2-3.2,0-4.7
			c-0.3-4.1-3.8-7.4-7.9-7.6c-5.2-0.2-8.6,3.1-9,9.1c-0.9,13.9-1.7,27.7-2.5,41.6c-1.1,19.5-2.2,39-3.4,58.5
			c-0.6,11-1.4,22.1-2,33.1c-0.3,5,3.3,9.1,8,9.4c4.7,0.3,8.5-3.2,8.9-8.2c0.2-2.2,0.3-4.5,0.5-6.7c1.4-23.2,2.7-46.3,4.1-69.5
			C186.3,175.8,187.5,157.4,188.6,139.1z M138.9,203c0-21.8,0-43.6,0-65.4c0-1.3,0-2.7-0.2-4c-0.9-5-5.9-7.9-10.8-6.4
			c-4,1.2-6,4.4-6,9.5c0,43.9,0,87.8,0,131.7c0,1.1,0,2.2,0.2,3.2c1,5.2,6.3,8.2,11.2,6.3c3.6-1.3,5.5-4.5,5.5-9.4
			C138.9,246.7,138.9,224.8,138.9,203z"/>
		<path class="st0" d="M130.2,90.5c-33.3,0-66.7,0-100,0c-1.1,0-2.2,0-3.2-0.1c-4.2-0.6-7-4.4-5.8-8.5c1.8-6,3.8-11.9,5.9-17.7
			c1.5-4.1,4.8-6.3,9.1-6.7c1.2-0.1,2.3-0.1,3.5-0.1c60.4,0,120.9,0,181.3,0c2.1,0,4.4,0.2,6.4,0.8c3.5,1.1,5.5,3.8,6.7,7.2
			c1.7,5,3.4,9.9,5,14.9c2,6.1-1,10.2-7.5,10.2C197.8,90.5,164,90.5,130.2,90.5z"/>
		<path class="st0" d="M153.8,32.6c-15.7,0-31.2,0-47,0c0,1.9-0.1,3.8,0,5.7c0.1,1.5-0.4,2.1-1.9,2.1c-4.4-0.1-8.8,0-13.2-0.1
			c-0.6,0-1.7-0.7-1.7-1.1c0-4.8-0.8-9.7,1.4-14.3c2.7-5.9,7.5-9.2,13.9-9.3c16.7-0.2,33.4-0.2,50.1,0c8.1,0.1,14.6,6.2,15.3,14.3
			c0.3,2.9,0.1,5.8,0.2,8.7c0,1.3-0.5,1.8-1.8,1.8c-4.5,0-9,0-13.5,0c-1.5,0-1.9-0.6-1.8-2C153.8,36.5,153.8,34.6,153.8,32.6z"/>
	</g>
</g>
</svg>
