<?xml version="1.0" encoding="utf-8"?>
<!-- Generator: Adobe Illustrator 25.4.1, SVG Export Plug-In . SVG Version: 6.00 Build 0)  -->
<svg version="1.1" id="Layer_1" xmlns="http://www.w3.org/2000/svg" xmlns:xlink="http://www.w3.org/1999/xlink" x="0px" y="0px"
	 viewBox="0 0 290.8 291.1" style="enable-background:new 0 0 290.8 291.1;" xml:space="preserve">
<style type="text/css">
	.st0{fill:#FFFFFF;}
</style>
<g id="ikbqpa.tif">
	<g>
		<path class="st0" d="M217.2,97.4c0.1,8.1-1.6,13.1-5,17.5c-1.6,2.1,0.3,6.8,3,7.2c12.7,2,21.5,12.2,21.5,24.6
			c-0.1,12.3-8.8,22.3-21.4,24.3c-2.9,0.5-4.7,5.1-3,7.4c7.4,9.9,6.4,23.5-2.3,32.3c-8.5,8.5-22.1,9.6-32,2.5
			c-2.9-2.1-7.3-0.3-7.8,3.3c-2,12-12.3,20.8-24.4,20.8c-12.2,0-22.6-8.9-24.5-21c-0.5-3.2-5-5.1-7.6-3.2
			c-10.1,7.3-23.9,6.3-32.4-2.5c-8.7-9-9.5-22.3-2-32.3c1.6-2.1-0.4-6.8-3-7.2c-12-2-20.7-11.2-21.4-22.6c-0.7-12,6.5-22.3,18-25.6
			c0.7-0.2,1.5-0.5,2.2-0.5c2.6,0,3.6-1.5,4.5-3.7c0.7-1.8,0.6-2.8-0.6-4.4c-7.2-9.7-6.1-23.2,2.6-31.9c8.4-8.5,21.9-9.6,31.8-2.6
			c3.2,2.3,7.4,0.6,8.1-3.4c2.1-11.9,12.3-20.5,24.4-20.5c12.1,0,22.4,8.7,24.5,20.7c0.6,3.7,4.9,5.3,8,3.2
			c8.2-5.5,16.9-6.3,25.7-1.8C212.7,82.6,217,90.1,217.2,97.4z M177.4,193.4c2.5,0,4.4,0.8,6.1,2.4c1.3,1.2,2.5,2.5,3.8,3.6
			c3.5,2.9,8.1,2.7,11.3-0.5c3-3,3-8,0.1-11.3c-1-1.1-2.1-2.1-3.2-3.2c-2.9-3-3.5-6.4-1.6-10.1c2.3-4.4,4.3-9,5.7-13.8
			c1.1-3.7,3.8-5.5,7.6-5.8c1.7-0.1,3.3,0,5-0.1c4.6-0.2,8.1-3.7,8.1-8.1c0-4.5-3.4-8-8-8.2c-1.7-0.1-3.3,0.1-5-0.1
			c-3.7-0.3-6.5-2.1-7.6-5.8c-1.5-4.9-3.5-9.5-5.8-14c-1.8-3.4-1.2-6.8,1.5-9.7c1.1-1.2,2.4-2.3,3.5-3.6c2.8-3.3,2.8-8.1-0.1-11.1
			c-3.1-3.2-7.8-3.5-11.2-0.5c-1.4,1.2-2.6,2.5-4,3.8c-2.8,2.5-6,3.1-9.2,1.4c-4.6-2.4-9.3-4.3-14.2-5.9c-3.7-1.2-5.7-3.9-5.8-7.8
			c-0.1-1.7,0-3.3-0.1-5c-0.3-4.5-3.9-7.8-8.2-7.8c-4.4,0-7.9,3.3-8.2,7.8c-0.1,1.5,0,3,0,4.5c-0.1,4.3-2,7.1-6.1,8.4
			c-4.8,1.5-9.4,3.4-13.8,5.7c-3.3,1.8-6.7,1.2-9.5-1.4c-1.3-1.2-2.6-2.6-4-3.8c-3.5-2.9-8.1-2.6-11.3,0.6c-2.9,3-2.9,7.9-0.1,11.1
			c1,1.1,2.1,2.1,3.2,3.2c3,3.1,3.6,6.5,1.6,10.3c-2.3,4.3-4.2,8.8-5.7,13.5c-1.2,3.8-4,5.8-8,6c-1.7,0.1-3.3,0-5,0.1
			c-4.3,0.3-7.7,3.7-7.7,8c-0.1,4.4,3.2,7.9,7.7,8.3c1.3,0.1,2.7,0,4,0c5.3,0,7.9,2,9.4,7.1c0.9,3,2,5.8,3.3,8.6
			c4.4,9.3,4.4,9.3-2.7,17c-3,3.3-3.1,8.2-0.2,11.3c3.1,3.3,7.9,3.6,11.4,0.6c1.4-1.2,2.6-2.6,4-3.8c2.7-2.4,5.9-3,9-1.4
			c4.7,2.4,9.5,4.4,14.5,6c3.6,1.2,5.5,3.9,5.7,7.7c0.1,1.6,0,3.2,0.1,4.7c0.2,4.6,3.7,8.1,8.1,8.1c4.5,0.1,8.1-3.4,8.3-8.2
			c0.1-1.2,0-2.5,0-3.7c0.1-4.9,2-7.5,6.7-9c4.4-1.3,8.6-3,12.6-5.2C174.6,193.9,176.1,193.4,177.4,193.4z"/>
		<path class="st0" d="M253.1,198.1c-2.4,1-4.2,1.8-6,2.5c-4.9,2-9.6,0.3-11.5-4.1c-1.9-4.4,0.3-9,5.1-11.1
			c7.6-3.2,15.1-6.4,22.7-9.6c5.9-2.5,10.1-0.7,12.6,5.2c3.2,7.6,6.6,15.2,9.7,22.9c2.6,6.3-1.9,12.3-8.6,11.6
			c-3.1-0.3-5.2-2-6.5-4.8c-0.8-1.7-1.5-3.5-2.4-5.6c-1.2,2.4-2.1,4.4-3.1,6.4c-20.7,40.2-53.3,65.4-97.8,73
			c-49.2,8.4-91-7.1-124.7-43.9c-14.1-15.5-23.4-33.8-28.7-54c-1.2-4.7,1.3-9.3,5.6-10.5c4.5-1.3,9,1.3,10.3,6.2
			c4,14.8,10.4,28.4,19.6,40.5c18.9,24.8,43.8,40.3,74.5,45.6c53.7,9.4,106.6-19,128.6-69C252.7,199.4,252.8,199,253.1,198.1z"/>
		<path class="st0" d="M40.2,92.6c1.8-0.7,3.5-1.4,5.3-2c4.2-1.4,8.7,0.5,10.4,4.5c1.7,3.9,0.1,8.8-4,10.6
			c-8.5,3.8-17.1,7.4-25.7,10.8c-3.9,1.5-8.3-0.4-10-4.3C12.5,103.7,9,95.3,5.6,86.9c-1.7-4.2,0.5-8.7,4.6-10.5
			c4-1.6,8.6,0.1,10.5,4.1c1,2,1.8,4.1,2.7,6.3c0.9-0.6,1.1-1.4,1.4-2.1c17.3-36.3,44.9-61.1,83.4-72.4
			C157.6-2,201.8,8.8,239.9,43.2c18.8,17,30.9,38.4,37.6,62.9c1.3,4.9-0.9,9.5-5.4,10.8c-4.6,1.4-9.1-1.2-10.5-6.3
			C257,93.5,249.1,78,237.5,64.5c-18.1-21-40.8-34.5-68-39.5c-34-6.3-65,1-92.9,21.4C60.6,58,48.6,73,40.2,90.9
			c-0.2,0.4-0.2,0.8-0.4,1.2c-0.1,0.2-0.1,0.3-0.2,0.5C39.8,92.6,40,92.6,40.2,92.6z"/>
		<path class="st0" d="M40.2,92.6c-0.2,0-0.4,0-0.6,0c0.1-0.2,0.1-0.3,0.2-0.5C39.9,92.2,40.1,92.4,40.2,92.6z"/>
		<path class="st0" d="M145.7,171.2c-13.7,0-24.8-11.2-24.7-24.7c0.1-13.6,11.2-24.6,24.9-24.5c13.6,0.1,24.6,11.1,24.6,24.6
			C170.6,160.2,159.4,171.2,145.7,171.2z M145.7,154.8c4.5,0,8.3-3.7,8.3-8.2c0-4.4-3.7-8.1-8.1-8.1c-4.5,0-8.3,3.7-8.3,8.2
			C137.6,151,141.2,154.7,145.7,154.8z"/>
	</g>
</g>
</svg>
