<?xml version="1.0" encoding="utf-8"?>
<!-- Generator: Adobe Illustrator 25.4.1, SVG Export Plug-In . SVG Version: 6.00 Build 0)  -->
<svg version="1.1" id="Layer_1" xmlns="http://www.w3.org/2000/svg" xmlns:xlink="http://www.w3.org/1999/xlink" x="0px" y="0px"
	 viewBox="0 0 99.2 100.2" style="enable-background:new 0 0 99.2 100.2;" xml:space="preserve">
<style type="text/css">
	.st0{fill:#E3E3E2;}
	.st1{fill:#444040;}
	.st2{fill:#AAABAB;}
	.st3{fill:#F9F9F9;}
	.st4{fill:#D85C50;}
	.st5{fill:#DCDCDB;}
	.st6{fill:#B4413E;}
	.st7{fill:#D8D7D7;}
	.st8{fill:#FDF3F1;}
	.st9{fill:#FBFBFB;}
	.st10{fill:#D66A60;}
</style>
<g id="DINq9s.tif">
	<g>
		<path class="st0" d="M29.1,5.6c3.6-0.3,6.8-2,10.3-2.8c12.2-2.6,23.8-0.7,34.5,5.6C86.1,15.7,94,26.4,97,40.4
			c2.3,10.9,1.1,21.4-3.9,31.5C88,82.6,80,90.3,69.4,95.1c-12.9,5.8-26.1,6-39.3,0.5c-9.1-3.8-16.3-10-21.7-18
			c-4.9-7.2-7.6-15.4-8-24.2C0,42.7,2.5,33,8.3,24c1.6-2.5,3.5-4.8,5.5-7c1.1-1.2,2.5-2.2,3.3-3.7c1.6,0.9,2.1,2.2,1.5,4
			c-0.4,1.2-0.5,2.6-0.6,3.9c-0.1,1.4,0.7,2,2.1,1.5c0.8-0.3,1.6-0.6,2.2-1.1c2.3-1.7,4.5-1.7,6.7,0c0.3,0.2,0.7,0.4,1.1,0.6
			c0.8,0.4,1.6,1,2.5,0.4c1.1-0.7,0.8-1.8,0.5-2.7c-1.3-3.6-0.3-6.4,2.8-8.5c0.1,0,0.1-0.1,0.2-0.2c0.6-0.6,1.3-1.1,1-2.1
			c-0.3-1-1.1-1.1-2-1.2c-1.1-0.2-2.3-0.4-3.4-0.5C30.4,7.3,29.3,7.1,29.1,5.6z M23.7,83.9c-0.2,3,1.6,4.1,4.3,2.7
			c6.6-3.4,13.1-6.8,19.7-10.3c1.6-0.8,2.7-0.9,4.3,0c6.5,3.5,13.1,6.9,19.6,10.3c1.2,0.6,2.3,1,3.5,0.1c1.1-0.8,1-2,0.8-3.2
			c-0.4-2.3-0.7-4.6-1.2-6.9c-0.3-1.3-0.1-1.9,1.3-2.4c11-4.2,14.5-14.9,8.1-24.9c-0.7-1.1-0.5-1.7,0.4-2.5c1.7-1.5,3.2-3.1,4.8-4.7
			c0.9-0.9,1.9-1.8,1.4-3.2c-0.5-1.5-1.8-1.8-3.1-2c-7.2-1-14.3-2.1-21.5-3c-1.8-0.2-2.9-0.9-3.8-2.6c-3.1-6.5-6.3-13-9.5-19.5
			c-0.6-1.3-1.2-2.7-3-2.6c-1.6,0.1-2.2,1.3-2.8,2.5c-3.2,6.6-6.5,13.1-9.6,19.7c-0.7,1.6-1.7,2.2-3.4,2.4c-7.2,1-14.3,2-21.5,3.1
			c-1.4,0.2-2.9,0.3-3.4,2c-0.5,1.5,0.6,2.5,1.5,3.4c5.3,5.2,10.6,10.3,15.9,15.5c1.1,1,1.4,2,1.1,3.5C26.2,68.9,25,76.6,23.7,83.9z
			"/>
		<path class="st1" d="M29.1,5.6c0.2,1.5,1.4,1.6,2.6,1.8c1.2,0.1,2.3,0.3,3.4,0.5c0.8,0.1,1.7,0.2,2,1.2c0.3,1-0.4,1.5-1,2.1
			c-0.1,0.1-0.1,0.1-0.2,0.2c-3.1,2.1-4.2,4.9-2.8,8.5c0.3,0.9,0.7,2-0.5,2.7c-0.9,0.6-1.7,0-2.5-0.4c-0.4-0.2-0.8-0.3-1.1-0.6
			c-2.2-1.7-4.5-1.7-6.7,0c-0.6,0.5-1.4,0.8-2.2,1.1c-1.3,0.5-2.2-0.1-2.1-1.5c0.1-1.3,0.2-2.7,0.6-3.9c0.6-1.8,0.1-3-1.5-4
			c-0.6-0.7-1.2-1.3-1.9-2c-0.6-0.7-1.5-1.2-1.1-2.3c0.4-1,1.4-1,2.3-1.1c0.3-0.1,0.7-0.2,1-0.1c3.2,0.1,5-1.3,6-4.3
			c0.4-1.1,0.7-2.7,2.2-2.6c1.5,0,1.6,1.7,2.3,2.7C28.3,4.1,28.7,4.9,29.1,5.6z M20.7,19.8c2.8-1.6,5.4-3.1,8.5-0.8
			c0.8,0.6,0.9-0.6,0.8-1.2c-0.3-2.4,0.1-4.4,2.3-5.9c0.4-0.3,0.8-0.7,0.6-1.2c-0.2-0.6-0.8-0.5-1.3-0.5c-2.6,0.1-4.4-1-5.2-3.6
			c-0.5-1.6-1.5-1.6-2-0.1c-0.9,2.4-2.6,3.2-5,3.3c-0.6,0-1.3-0.1-1.7,0.7C20.8,14.2,20.8,14.2,20.7,19.8z"/>
		<path class="st1" d="M23.7,83.9c1.3-7.4,2.5-15,3.9-22.6c0.3-1.5,0-2.5-1.1-3.5c-5.4-5.1-10.6-10.3-15.9-15.5
			c-1-0.9-2-1.9-1.5-3.4c0.5-1.6,2-1.8,3.4-2c7.2-1,14.3-2.1,21.5-3.1c1.6-0.2,2.6-0.9,3.4-2.4c3.1-6.6,6.4-13.1,9.6-19.7
			c0.6-1.2,1.2-2.5,2.8-2.5c1.8-0.1,2.3,1.3,3,2.6c3.2,6.5,6.5,12.9,9.5,19.5c0.8,1.8,2,2.4,3.8,2.6c7.2,1,14.3,2,21.5,3
			c1.4,0.2,2.7,0.5,3.1,2c0.5,1.4-0.5,2.3-1.4,3.2c-1.6,1.6-3.2,3.2-4.8,4.7c-0.9,0.8-1.1,1.4-0.4,2.5c6.4,10,3,20.6-8.1,24.9
			c-1.4,0.5-1.5,1.1-1.3,2.4c0.5,2.3,0.8,4.6,1.2,6.9c0.2,1.2,0.3,2.4-0.8,3.2c-1.2,0.9-2.3,0.5-3.5-0.1
			c-6.5-3.4-13.1-6.8-19.6-10.3c-1.6-0.9-2.8-0.8-4.3,0c-6.5,3.5-13.1,6.9-19.7,10.3C25.4,88,23.5,86.9,23.7,83.9z M74.3,72.2
			c0.3,0,0.7,0.1,1,0c7.3-2.5,11.1-9.2,9.3-17c-1.2-5.2-5.9-9.2-10.3-9.5c-5.6-2-12.1,1.6-14.7,5.8c-3.1,5-2.9,10.8,0.7,15.8
			C63.6,71.9,68.8,73.7,74.3,72.2z M48.2,14.6C45.2,20.8,42,26.9,39,33.1c-0.9,1.9-2.1,2.7-4.2,3c-7.2,0.9-14.3,2-21.5,3.1
			c-0.7,0.1-1.5-0.1-2.2,1.3c0.5,0.4,1.3,0.8,1.9,1.3c5.1,5,10.2,10,15.4,14.9c1.4,1.3,1.8,2.6,1.4,4.4c-1.2,6.3-2.2,12.6-3.2,18.9
			c-0.3,1.6-0.9,3.2-0.6,4.8c1,0,1.7-0.5,2.4-0.9c6.3-3.3,12.7-6.6,19-10c1.7-0.9,3.2-0.9,4.9,0c5.8,3.1,11.6,6.1,17.5,9.1
			c0.9,0.5,1.7,1,2.6,1.5c1.2,0.7,1.6,0.4,1.4-1c-0.4-1.9-0.9-3.9-1-5.9c-0.1-2.3-1.2-3-3.3-2.6c-0.8-0.2-1.6-0.4-2.4-0.6
			C58,72,53,62.4,56.1,53.6c3.1-8.9,13.2-13.2,21.8-9.3c1.4,0.6,2.5,2.5,4.1,1.8c1.4-0.6,2.4-2.2,3.6-3.3c0.2-0.2,0.3-0.4,0.4-0.6
			c1-0.6,1.8-1.4,2.4-2.4c-0.6-0.7-1.3-0.6-1.9-0.7C79.3,38.1,72.1,37,65,36c-2.1-0.3-3.4-1.1-4.4-3.1c-3-6.4-6.3-12.8-9.4-19.2
			c-0.4-0.7-0.4-1.8-1.5-2.1C49,12.6,48.5,13.5,48.2,14.6z"/>
		<path class="st2" d="M20.7,19.8c0.1-5.6,0.1-5.6-2.9-9.4c0.4-0.7,1.1-0.7,1.7-0.7c2.4,0,4.1-0.8,5-3.3c0.5-1.5,1.5-1.5,2,0.1
			c0.8,2.6,2.6,3.7,5.2,3.6c0.5,0,1.1-0.1,1.3,0.5c0.2,0.6-0.2,1-0.6,1.2c-2.2,1.4-2.5,3.5-2.3,5.9c0.1,0.6,0,1.8-0.8,1.2
			C26.1,16.7,23.4,18.2,20.7,19.8z"/>
		<path class="st3" d="M85.9,42.2c-0.1,0.2-0.3,0.4-0.4,0.6c-1.2,1.2-2.2,2.7-3.6,3.3c-1.5,0.7-2.7-1.2-4.1-1.8
			c-8.6-3.8-18.6,0.5-21.8,9.3C53,62.4,58,72,67,74.4c0.8,0.2,1.6,0.4,2.4,0.6c0.2,2.7,1.9,5.2,0.4,8c-5.8-3-11.7-6-17.5-9.1
			c-1.7-0.9-3.1-0.9-4.9,0c-6.3,3.4-12.6,6.7-19,10c-0.7,0.4-1.4,1-2.4,0.9c-0.3-1.7,0.3-3.2,0.6-4.8c1-6.3,2.1-12.6,3.2-18.9
			c0.3-1.8-0.1-3.1-1.4-4.4c-5.2-4.9-10.3-10-15.4-14.9c-0.6-0.6-1.3-1-1.9-1.3c0.7-1.4,1.5-1.2,2.2-1.3C20.5,38,27.7,37,34.8,36
			c2-0.3,3.3-1.1,4.2-3c3-6.2,6.1-12.3,9.2-18.5c3.5,7,7,14.1,10.5,21.1c0.5,1,0.9,2.1,2.3,2.3c6.2,0.8,12.4,1.5,18.6,2.6
			C81.7,41,84.1,40.5,85.9,42.2z"/>
		<path class="st4" d="M74.3,72.2c-5.4,1.5-10.7-0.3-14-4.9c-3.7-5-3.8-10.8-0.7-15.8c2.6-4.2,9.1-7.8,14.7-5.8
			c0.1,0.5,0.4,0.9,0.8,1.2c5.2,3.4,8.2,12.3,4.2,19.3C78,68.5,75.6,69.9,74.3,72.2z M71.2,51.5c-4.1,0-7.4,3.3-7.4,7.5
			c0,4.1,3.2,7.3,7.2,7.4c4.1,0.1,7.5-3.3,7.5-7.4C78.6,54.9,75.3,51.5,71.2,51.5z"/>
		<path class="st5" d="M85.9,42.2c-1.8-1.7-4.2-1.2-6.3-1.6c-6.2-1-12.4-1.8-18.6-2.6c-1.4-0.2-1.8-1.4-2.3-2.3
			c-3.5-7-7-14.1-10.5-21.1c0.3-1.1,0.8-2,1.4-2.9c1.1,0.3,1.1,1.4,1.5,2.1c3.2,6.4,6.4,12.7,9.4,19.2c0.9,2,2.2,2.8,4.4,3.1
			c7.2,0.9,14.3,2,21.4,3.1c0.6,0.1,1.3,0,1.9,0.7C87.7,40.8,86.9,41.6,85.9,42.2z"/>
		<path class="st6" d="M74.3,72.2c1.3-2.3,3.7-3.7,5.1-6c4-6.9,1-15.8-4.2-19.3c-0.4-0.3-0.7-0.7-0.8-1.2c4.4,0.4,9,4.3,10.3,9.5
			c1.8,7.8-2,14.5-9.3,17C74.9,72.3,74.6,72.2,74.3,72.2z"/>
		<path class="st7" d="M69.8,83c1.5-2.7-0.2-5.3-0.4-8c2.1-0.5,3.2,0.3,3.3,2.6c0.1,2,0.6,3.9,1,5.9c0.3,1.4-0.1,1.7-1.4,1
			C71.5,84,70.6,83.5,69.8,83z"/>
		<path class="st8" d="M71.2,51.5c4.1,0,7.4,3.4,7.4,7.5c0,4.1-3.5,7.5-7.5,7.4c-4-0.1-7.2-3.3-7.2-7.4C63.8,54.8,67,51.5,71.2,51.5
			z"/>
	</g>
</g>
<path class="st0" d="M53.5,61.4c0-0.1,0-0.1,0-0.1c0,0.4-0.1,0.7-0.2,1.1c1,6.1,4.3,11.6,10.2,14.3c0.1,0,0.2,0.1,0.3,0.1
	c0,0,0.1-0.1,0.1-0.1C58.2,73.1,54.3,68.3,53.5,61.4z"/>
<path class="st1" d="M86.6,46c-3.6-2.6-7-4.9-11.8-5.6c-0.6-0.1-1.2-0.2-1.8-0.2c-0.7,0-1.4,0-2.1-0.1c-0.8,0.1-1.6,0.2-2.4,0.4
	c-0.1,0.2-0.3,0.3-0.5,0.1c-2.9,0.8-5.4,2.2-7.7,4c-0.4,0.7-1,1.3-1.9,1.9c-0.2,0.1-0.3,0.2-0.5,0.3l-0.6,0.7
	c-1.7,3.1-3.4,6.1-3.7,9.7c0,0.3-0.1,0.5-0.2,0.7c0,0.4,0,0.8,0,1.2c0.1,0.4,0.2,0.7,0.2,1.1c0.1,0.4,0.1,0.8,0,1.2c0,0,0,0.1,0,0.1
	c0.8,6.9,4.7,11.7,10.4,15.2c0.9,0.3,1.7,0.6,2.6,0.9c10.4,3.5,21.6-2.4,24.6-13c1.8-6.2,0.3-11.8-3.1-17.1
	C87.6,46.9,87.1,46.4,86.6,46z M79.7,74.8c-0.5,0.2-0.9,0.5-1.4,0.3c-6.8,3.2-14.8-0.4-18.5-4.7c-4.3-4.9-5.3-12.6-2.3-18.7
	c3.1-6.4,9.4-9.8,17-9.3c0.2,0.1,0.4,0.1,0.6,0.2c1.3,0,2.6,0.4,3.8,1c4.6,1.2,7.4,4.3,9.4,8.4C92.2,60.4,88.3,71,79.7,74.8z"/>
<path class="st9" d="M57.2,47.3"/>
<path class="st9" d="M53.3,57.7c0.1-0.2,0.2-0.4,0.2-0.7"/>
<path class="st4" d="M80,45.1c-0.5-0.4-1-0.8-1.2-1.5c-1.2-0.5-2.4-1-3.8-1c-0.2-0.1-0.4-0.1-0.6-0.2c-7.6-0.5-13.8,2.9-17,9.3
	c-3,6-1.9,13.8,2.3,18.7c3.8,4.3,11.7,7.8,18.5,4.7c1.5-1.5,3.2-2.9,4.5-4.5C88.9,62.7,88,51.5,80,45.1z M72.5,70.7
	c-6.2-0.1-11.4-5.3-11.4-11.5c0-6.4,5.2-11.5,11.6-11.5c6.4,0,11.5,5.2,11.5,11.6C84.2,65.6,78.9,70.8,72.5,70.7z"/>
<path class="st6" d="M78.8,43.6c0.2,0.7,0.7,1.1,1.2,1.5c8,6.4,8.9,17.6,2.8,25.4c-1.3,1.7-3,3-4.5,4.5c0.5,0.2,1-0.1,1.4-0.3
	C88.3,71,92.2,60.4,88.1,52C86.2,47.9,83.4,44.8,78.8,43.6z"/>
<path class="st6" d="M75,42.6c-0.2-0.1-0.4-0.1-0.6-0.2C74.6,42.5,74.8,42.6,75,42.6z"/>
<path class="st8" d="M72.7,47.7c-6.4,0-11.6,5.1-11.6,11.5c0,6.2,5.2,11.4,11.4,11.5c6.4,0.1,11.7-5.1,11.7-11.4
	C84.2,52.9,79.1,47.7,72.7,47.7z M77,62.1c0.5,0.5,1,1,0.4,1.7c-0.7,0.8-1.3,0.3-1.9-0.2c-0.1-0.1-0.1-0.1-0.2-0.2
	c-2.7-2.3-2.7-2.3-5.4,0c-0.4,0.3-0.8,0.6-1.1,0.8c-1,0-1.4-0.5-1.2-1.3c0.1-0.3,0.3-0.6,0.5-0.8c2.8-1.9,3-3.8,0.1-5.8
	c-0.6-0.4-0.9-1.1-0.4-1.7c0.7-0.8,1.3-0.2,1.9,0.3c0.3,0.3,0.6,0.5,0.9,0.9c1.3,1.9,2.6,1.8,3.9,0c0.3-0.4,0.7-0.7,1.1-1
	c0.5-0.5,1.2-0.7,1.7-0.1c0.5,0.6,0.2,1.1-0.2,1.5c-0.1,0.1-0.1,0.1-0.2,0.2c-0.8,1-2.5,1.7-2.4,3C74.8,60.3,76.2,61.2,77,62.1z"/>
<path class="st10" d="M68.9,64.2c-1,0-1.4-0.5-1.2-1.3c0.1-0.3,0.3-0.6,0.5-0.8c2.8-1.9,3-3.8,0.1-5.8c-0.6-0.4-0.9-1.1-0.4-1.7
	c0.7-0.8,1.3-0.2,1.9,0.3c0.3,0.3,0.6,0.5,0.9,0.9c1.3,1.9,2.6,1.8,3.9,0c0.3-0.4,0.7-0.7,1.1-1c0.5-0.5,1.2-0.7,1.7-0.1
	c0.5,0.6,0.2,1.1-0.2,1.5c-0.1,0.1-0.1,0.1-0.2,0.2c-0.8,1-2.5,1.7-2.4,3c0.1,1,1.5,1.9,2.3,2.8c0.5,0.5,1,1,0.4,1.7
	c-0.7,0.8-1.3,0.3-1.9-0.2c-0.1-0.1-0.1-0.1-0.2-0.2c-2.7-2.3-2.7-2.3-5.4,0C69.6,63.7,69.2,64,68.9,64.2z"/>
</svg>
